<?xml version="1.0" encoding="UTF-8" standalone="no"?>
<svg
   xmlns:dc="http://purl.org/dc/elements/1.1/"
   xmlns:cc="http://creativecommons.org/ns#"
   xmlns:rdf="http://www.w3.org/1999/02/22-rdf-syntax-ns#"
   xmlns:svg="http://www.w3.org/2000/svg"
   xmlns="http://www.w3.org/2000/svg"
   id="svg148"
   version="1.1"
   viewBox="0.00 0.00 1000.00 1000.00">
  <metadata
     id="metadata154">
    <rdf:RDF>
      <cc:Work
         rdf:about="">
        <dc:format>image/svg+xml</dc:format>
        <dc:type
           rdf:resource="http://purl.org/dc/dcmitype/StillImage" />
        <dc:title></dc:title>
      </cc:Work>
    </rdf:RDF>
  </metadata>
  <defs
     id="defs152" />
  <g
     transform="scale(4.1667 4.1667) rotate(0) translate(4 238)"
     class="graph"
     id="graph0">
    <title
       id="title2">%3</title>
    <polygon
       style="fill:none"
       fill="#ffffff"
       id="polygon4"
       points="-4,4 -4,-238 233,-238 233,4 -4,4"
       stroke="transparent" />
    <!-- table0 -->
    <g
       class="node"
       id="node1">
      <title
         id="title6">table0</title>
      <polygon
         fill="#c0c0c0"
         id="polygon8"
         points="8,-130 8,-230 96,-230 96,-130 8,-130"
         stroke="transparent" />
      <polyline
         fill="none"
         stroke="#000000"
         id="polyline10"
         points="8,-210 96,-210 " />
      <text
         fill="#000000"
         font-family="Times,serif"
         text-anchor="start"
         id="text12"
         font-size="14.00"
         y="-215.8"
         x="45.7759">s1</text>
      <polygon
         fill="none"
         stroke="#000000"
         id="polygon14"
         points="8,-190 8,-210 60,-210 60,-190 8,-190" />
      <text
         fill="#000000"
         font-family="Times,serif"
         text-anchor="start"
         id="text16"
         font-size="14.00"
         y="-195.8"
         x="18.8413">name</text>
      <polygon
         fill="none"
         stroke="#000000"
         id="polygon18"
         points="60,-190 60,-210 96,-210 96,-190 60,-190" />
      <text
         fill="#000000"
         font-family="Times,serif"
         text-anchor="start"
         id="text20"
         font-size="14.00"
         y="-195.8"
         x="62.8413">value</text>
      <polygon
         fill="none"
         stroke="#000000"
         id="polygon22"
         points="8,-170 8,-190 60,-190 60,-170 8,-170" />
      <text
         fill="#000000"
         font-family="Times,serif"
         text-anchor="start"
         id="text24"
         font-size="14.00"
         y="-175.8"
         x="26.2241">ptr</text>
      <polygon
         fill="none"
         stroke="#000000"
         id="polygon26"
         points="60,-170 60,-190 96,-190 96,-170 60,-170" />
      <polygon
         fill="none"
         stroke="#000000"
         id="polygon28"
         points="8,-150 8,-170 60,-170 60,-150 8,-150" />
      <text
         fill="#000000"
         font-family="Times,serif"
         text-anchor="start"
         id="text30"
         font-size="14.00"
         y="-155.8"
         x="25.4482">len</text>
      <polygon
         fill="none"
         stroke="#000000"
         id="polygon32"
         points="60,-150 60,-170 96,-170 96,-150 60,-150" />
      <text
         fill="#000000"
         font-family="Times,serif"
         text-anchor="start"
         id="text34"
         font-size="14.00"
         y="-155.8"
         x="74.5">5</text>
      <polygon
         fill="none"
         stroke="#000000"
         id="polygon36"
         points="8,-130 8,-150 60,-150 60,-130 8,-130" />
      <text
         fill="#000000"
         font-family="Times,serif"
         text-anchor="start"
         id="text38"
         font-size="14.00"
         y="-135.8"
         x="10.6826">capacity</text>
      <polygon
         fill="none"
         stroke="#000000"
         id="polygon40"
         points="60,-130 60,-150 96,-150 96,-130 60,-130" />
      <text
         fill="#000000"
         font-family="Times,serif"
         text-anchor="start"
         id="text42"
         font-size="14.00"
         y="-135.8"
         x="74.5">5</text>
    </g>
    <!-- table1 -->
    <g
       class="node"
       id="node3">
      <title
         id="title45">table1</title>
      <polygon
         fill="none"
         stroke="#000000"
         id="polygon47"
         points="148.5,-127 148.5,-147 185.5,-147 185.5,-127 148.5,-127" />
      <text
         fill="#000000"
         font-family="Times,serif"
         text-anchor="start"
         id="text49"
         font-size="14.00"
         y="-132.8"
         x="151.4482">index</text>
      <polygon
         fill="none"
         stroke="#000000"
         id="polygon51"
         points="185.5,-127 185.5,-147 221.5,-147 221.5,-127 185.5,-127" />
      <text
         fill="#000000"
         font-family="Times,serif"
         text-anchor="start"
         id="text53"
         font-size="14.00"
         y="-132.8"
         x="188.3413">value</text>
      <polygon
         fill="none"
         stroke="#000000"
         id="polygon55"
         points="148.5,-107 148.5,-127 185.5,-127 185.5,-107 148.5,-107" />
      <text
         fill="#000000"
         font-family="Times,serif"
         text-anchor="start"
         id="text57"
         font-size="14.00"
         y="-112.8"
         x="163.5">0</text>
      <polygon
         fill="none"
         stroke="#000000"
         id="polygon59"
         points="185.5,-107 185.5,-127 221.5,-127 221.5,-107 185.5,-107" />
      <text
         fill="#000000"
         font-family="Times,serif"
         text-anchor="start"
         id="text61"
         font-size="14.00"
         y="-112.8"
         x="200">h</text>
      <polygon
         fill="none"
         stroke="#000000"
         id="polygon63"
         points="148.5,-87 148.5,-107 185.5,-107 185.5,-87 148.5,-87" />
      <text
         fill="#000000"
         font-family="Times,serif"
         text-anchor="start"
         id="text65"
         font-size="14.00"
         y="-92.8"
         x="163.5">1</text>
      <polygon
         fill="none"
         stroke="#000000"
         id="polygon67"
         points="185.5,-87 185.5,-107 221.5,-107 221.5,-87 185.5,-87" />
      <text
         fill="#000000"
         font-family="Times,serif"
         text-anchor="start"
         id="text69"
         font-size="14.00"
         y="-92.8"
         x="200.3931">e</text>
      <polygon
         fill="none"
         stroke="#000000"
         id="polygon71"
         points="148.5,-67 148.5,-87 185.5,-87 185.5,-67 148.5,-67" />
      <text
         fill="#000000"
         font-family="Times,serif"
         text-anchor="start"
         id="text73"
         font-size="14.00"
         y="-72.8"
         x="163.5">2</text>
      <polygon
         fill="none"
         stroke="#000000"
         id="polygon75"
         points="185.5,-67 185.5,-87 221.5,-87 221.5,-67 185.5,-67" />
      <text
         fill="#000000"
         font-family="Times,serif"
         text-anchor="start"
         id="text77"
         font-size="14.00"
         y="-72.8"
         x="201.5552">l</text>
      <polygon
         fill="none"
         stroke="#000000"
         id="polygon79"
         points="148.5,-47 148.5,-67 185.5,-67 185.5,-47 148.5,-47" />
      <text
         fill="#000000"
         font-family="Times,serif"
         text-anchor="start"
         id="text81"
         font-size="14.00"
         y="-52.8"
         x="163.5">3</text>
      <polygon
         fill="none"
         stroke="#000000"
         id="polygon83"
         points="185.5,-47 185.5,-67 221.5,-67 221.5,-47 185.5,-47" />
      <text
         fill="#000000"
         font-family="Times,serif"
         text-anchor="start"
         id="text85"
         font-size="14.00"
         y="-52.8"
         x="201.5552">l</text>
      <polygon
         fill="none"
         stroke="#000000"
         id="polygon87"
         points="148.5,-27 148.5,-47 185.5,-47 185.5,-27 148.5,-27" />
      <text
         fill="#000000"
         font-family="Times,serif"
         text-anchor="start"
         id="text89"
         font-size="14.00"
         y="-32.8"
         x="163.5">4</text>
      <polygon
         fill="none"
         stroke="#000000"
         id="polygon91"
         points="185.5,-27 185.5,-47 221.5,-47 221.5,-27 185.5,-27" />
      <text
         fill="#000000"
         font-family="Times,serif"
         text-anchor="start"
         id="text93"
         font-size="14.00"
         y="-32.8"
         x="200">o</text>
    </g>
    <!-- table0&#45;&gt;table1 -->
    <g
       class="edge"
       id="edge1">
      <title
         id="title96">table0:c-&gt;table1:pointee</title>
      <path
         fill="none"
         stroke="#000000"
         id="path98"
         d="M78,-180C78,-180 101.9982,-126.912 138.4405,-118.2023" />
      <polygon
         fill="#000000"
         stroke="#000000"
         id="polygon100"
         points="138.986,-121.6621 148.5,-117 138.1553,-114.7115 138.986,-121.6621" />
    </g>
    <!-- table3 -->
    <g
       class="node"
       id="node2">
      <title
         id="title103">table3</title>
      <polyline
         fill="none"
         stroke="#000000"
         id="polyline105"
         points="8,-84 96,-84 " />
      <text
         fill="#000000"
         font-family="Times,serif"
         text-anchor="start"
         id="text107"
         font-size="14.00"
         y="-89.8"
         x="45.7759">s2</text>
      <polygon
         fill="none"
         stroke="#000000"
         id="polygon109"
         points="8,-64 8,-84 60,-84 60,-64 8,-64" />
      <text
         fill="#000000"
         font-family="Times,serif"
         text-anchor="start"
         id="text111"
         font-size="14.00"
         y="-69.8"
         x="18.8413">name</text>
      <polygon
         fill="none"
         stroke="#000000"
         id="polygon113"
         points="60,-64 60,-84 96,-84 96,-64 60,-64" />
      <text
         fill="#000000"
         font-family="Times,serif"
         text-anchor="start"
         id="text115"
         font-size="14.00"
         y="-69.8"
         x="62.8413">value</text>
      <polygon
         fill="none"
         stroke="#000000"
         id="polygon117"
         points="8,-44 8,-64 60,-64 60,-44 8,-44" />
      <text
         fill="#000000"
         font-family="Times,serif"
         text-anchor="start"
         id="text119"
         font-size="14.00"
         y="-49.8"
         x="26.2241">ptr</text>
      <polygon
         fill="none"
         stroke="#000000"
         id="polygon121"
         points="60,-44 60,-64 96,-64 96,-44 60,-44" />
      <polygon
         fill="none"
         stroke="#000000"
         id="polygon123"
         points="8,-24 8,-44 60,-44 60,-24 8,-24" />
      <text
         fill="#000000"
         font-family="Times,serif"
         text-anchor="start"
         id="text125"
         font-size="14.00"
         y="-29.8"
         x="25.4482">len</text>
      <polygon
         fill="none"
         stroke="#000000"
         id="polygon127"
         points="60,-24 60,-44 96,-44 96,-24 60,-24" />
      <text
         fill="#000000"
         font-family="Times,serif"
         text-anchor="start"
         id="text129"
         font-size="14.00"
         y="-29.8"
         x="74.5">5</text>
      <polygon
         fill="none"
         stroke="#000000"
         id="polygon131"
         points="8,-4 8,-24 60,-24 60,-4 8,-4" />
      <text
         fill="#000000"
         font-family="Times,serif"
         text-anchor="start"
         id="text133"
         font-size="14.00"
         y="-9.8"
         x="10.6826">capacity</text>
      <polygon
         fill="none"
         stroke="#000000"
         id="polygon135"
         points="60,-4 60,-24 96,-24 96,-4 60,-4" />
      <text
         fill="#000000"
         font-family="Times,serif"
         text-anchor="start"
         id="text137"
         font-size="14.00"
         y="-9.8"
         x="74.5">5</text>
    </g>
    <!-- table3&#45;&gt;table1 -->
    <g
       class="edge"
       id="edge2">
      <title
         id="title140">table3:c-&gt;table1:pointee</title>
      <path
         fill="none"
         stroke="#000000"
         id="path142"
         d="M78,-54C78,-54 101.9982,-107.088 138.4405,-115.7977" />
      <polygon
         fill="#000000"
         stroke="#000000"
         id="polygon144"
         points="138.1553,-119.2885 148.5,-117 138.986,-112.3379 138.1553,-119.2885" />
    </g>
  </g>
</svg>
